<?xml version="1.0" encoding="utf-8"?><svg xmlns="http://www.w3.org/2000/svg" xmlns:xlink="http://www.w3.org/1999/xlink"><symbol fill="none" viewBox="0 0 60 60" id="about--play-icon" xmlns="http://www.w3.org/2000/svg"><circle cx="30" cy="30" r="30" fill="#102A89"/><path d="M40 29.694 24.705 38.09V21.299L40 29.694Z" fill="#fff"/></symbol><symbol viewBox="0 0 24 24" id="blogFilter--search-icon" xmlns="http://www.w3.org/2000/svg"><path d="m14.745 14 7.609 7.646M16 10a7 7 0 1 1-14 0 7 7 0 0 1 14 0Z" stroke="currentColor" stroke-linecap="round"/></symbol><symbol fill="none" viewBox="0 0 58 57" id="competences--icon-1" xmlns="http://www.w3.org/2000/svg"><g clip-path="url(#da)" stroke="#fff" stroke-miterlimit="10"><path d="M56.216 29.09v-.59a27.402 27.402 0 0 0-4.705-15.343A27.858 27.858 0 0 0 38.98 2.986a28.209 28.209 0 0 0-16.133-1.572A28.02 28.02 0 0 0 8.551 8.972a27.524 27.524 0 0 0-7.642 14.14 27.336 27.336 0 0 0 1.589 15.956 27.684 27.684 0 0 0 10.284 12.394 28.141 28.141 0 0 0 15.512 4.654c.776 0 1.552 0 2.327-.1 21.989 0 26.27.047 26.96.07L56.216 29.09Z"/><path d="M47.553 28.907V28.5a18.68 18.68 0 0 0-3.208-10.459 18.99 18.99 0 0 0-8.542-6.933 19.23 19.23 0 0 0-10.997-1.072 19.1 19.1 0 0 0-9.745 5.153 18.762 18.762 0 0 0-5.21 9.638 18.634 18.634 0 0 0 1.084 10.877 18.87 18.87 0 0 0 7.01 8.449 19.184 19.184 0 0 0 10.574 3.172c.535 0 1.063 0 1.552-.069 14.992 0 17.908 0 18.381.046l-.9-18.395Z"/><path d="M52.151 29.006V28.5a23.315 23.315 0 0 0-4-13.056 23.702 23.702 0 0 0-10.66-8.658 24 24 0 0 0-13.726-1.34 23.84 23.84 0 0 0-12.166 6.429 23.42 23.42 0 0 0-6.504 12.03 23.258 23.258 0 0 0 1.35 13.577 23.555 23.555 0 0 0 8.75 10.547 23.943 23.943 0 0 0 13.2 3.96c.667 0 1.326 0 1.977-.084 18.708 0 22.353 0 22.935.061l-1.156-22.96Z"/><path d="M40.394 28.745V28.5a11.48 11.48 0 0 0-1.971-6.427 11.67 11.67 0 0 0-5.25-4.26 11.818 11.818 0 0 0-6.757-.659 11.737 11.737 0 0 0-5.989 3.166 11.53 11.53 0 0 0-3.2 5.923 11.45 11.45 0 0 0 .665 6.684 11.596 11.596 0 0 0 4.308 5.192 11.789 11.789 0 0 0 6.498 1.95c.333 0 .651 0 .977-.04h11.293l-.574-11.284Z"/><path d="M44.078 28.807v-.33a15.186 15.186 0 0 0-2.627-8.492 15.438 15.438 0 0 0-6.952-5.62 15.632 15.632 0 0 0-8.937-.855 15.527 15.527 0 0 0-7.913 4.197 15.253 15.253 0 0 0-4.224 7.837 15.149 15.149 0 0 0 .887 8.837 15.343 15.343 0 0 0 5.7 6.862 15.596 15.596 0 0 0 8.592 2.576c.435 0 .869 0 1.288-.053 12.192 0 14.566 0 14.946.038l-.76-14.997Z"/><path d="M35.197 28.638V28.5a6.249 6.249 0 0 0-1.073-3.499 6.353 6.353 0 0 0-2.858-2.32 6.433 6.433 0 0 0-3.68-.358 6.39 6.39 0 0 0-3.26 1.724 6.277 6.277 0 0 0-1.742 3.224 6.235 6.235 0 0 0 .362 3.64 6.314 6.314 0 0 0 2.345 2.826 6.418 6.418 0 0 0 3.538 1.061h6.67l-.302-6.16Z"/><path d="M37.532 28.684V28.5a8.601 8.601 0 0 0-1.473-4.817 8.744 8.744 0 0 0-3.93-3.197 8.854 8.854 0 0 0-5.064-.497 8.795 8.795 0 0 0-4.49 2.368 8.639 8.639 0 0 0-2.402 4.437 8.58 8.58 0 0 0 .494 5.008 8.69 8.69 0 0 0 3.225 3.894 8.834 8.834 0 0 0 4.867 1.465h9.191l-.418-8.477Z"/></g><defs><clipPath id="da"><path fill="#fff" transform="translate(0 .5)" d="M0 0h58v56H0z"/></clipPath></defs></symbol><symbol fill="none" viewBox="0 0 60 58" id="competences--icon-2" xmlns="http://www.w3.org/2000/svg"><path d="M57.491 29.935v-.6c0-5.537-1.66-10.95-4.77-15.555A28.243 28.243 0 0 0 40.015 3.467 28.597 28.597 0 0 0 23.66 1.874 28.406 28.406 0 0 0 9.166 9.537 27.907 27.907 0 0 0 1.42 23.873a27.717 27.717 0 0 0 1.61 16.178 28.069 28.069 0 0 0 10.427 12.566 28.53 28.53 0 0 0 15.727 4.719c.786 0 1.573-.039 2.359-.101 22.293 0 26.633.047 27.333.07l-1.384-27.37Z" stroke="#fff" stroke-miterlimit="10"/><path d="M29.89 50.39c11.755 0 21.286-9.426 21.286-21.054 0-11.628-9.53-21.055-21.286-21.055-11.756 0-21.286 9.427-21.286 21.055S18.134 50.39 29.89 50.39ZM43.746 51.822h9.483M53.228 43.281v8.93" stroke="#fff" stroke-miterlimit="10"/></symbol><symbol fill="none" viewBox="0 0 59 57" id="competences--icon-3" xmlns="http://www.w3.org/2000/svg"><g clip-path="url(#fa)" stroke="#fff" stroke-miterlimit="10"><path d="M56.325 28.702v-.59a27.402 27.402 0 0 0-4.705-15.343A27.858 27.858 0 0 0 39.089 2.596a28.21 28.21 0 0 0-16.133-1.571A28.019 28.019 0 0 0 8.66 8.584a27.525 27.525 0 0 0-7.642 14.14 27.336 27.336 0 0 0 1.59 15.956A27.685 27.685 0 0 0 12.89 51.074a28.143 28.143 0 0 0 15.513 4.654c.775 0 1.55 0 2.326-.1 21.989 0 26.27.046 26.96.07l-1.364-26.996Z"/><path d="M34.64 28.234a.662.662 0 0 0 0-.123 5.58 5.58 0 0 0-.959-3.124 5.672 5.672 0 0 0-2.551-2.07 5.744 5.744 0 0 0-3.285-.32 5.705 5.705 0 0 0-2.91 1.538 5.604 5.604 0 0 0-1.557 2.88 5.565 5.565 0 0 0 .324 3.248 5.637 5.637 0 0 0 2.094 2.524 5.73 5.73 0 0 0 3.158.947c.158.008.316.008.473 0h5.484l-.272-5.5ZM34.919 33.727 57.365 55.39"/></g><defs><clipPath id="fa"><path fill="#fff" transform="translate(.11 .111)" d="M0 0h58v56H0z"/></clipPath></defs></symbol><symbol fill="none" viewBox="0 0 58 56" id="competences--icon-4" xmlns="http://www.w3.org/2000/svg"><g clip-path="url(#ga)" stroke="#fff" stroke-miterlimit="10"><path d="M56.217 28.59V28a27.402 27.402 0 0 0-4.706-15.343A27.858 27.858 0 0 0 38.98 2.486 28.21 28.21 0 0 0 22.847.914 28.019 28.019 0 0 0 8.551 8.472a27.525 27.525 0 0 0-7.642 14.14A27.336 27.336 0 0 0 2.5 38.568a27.685 27.685 0 0 0 10.283 12.394 28.143 28.143 0 0 0 15.513 4.654c.775 0 1.55 0 2.326-.1 21.989 0 26.27.047 26.96.07L56.218 28.59Z"/><path d="M34.53 28.123a.646.646 0 0 0 0-.123 5.58 5.58 0 0 0-.958-3.124 5.673 5.673 0 0 0-2.551-2.071 5.744 5.744 0 0 0-3.285-.32 5.704 5.704 0 0 0-2.91 1.539 5.604 5.604 0 0 0-1.557 2.879 5.566 5.566 0 0 0 .324 3.249 5.637 5.637 0 0 0 2.094 2.523 5.73 5.73 0 0 0 3.158.948c.158.008.316.008.473 0h5.484l-.272-5.5ZM34.81 33.615 57.254 55.28M8.857 8.185l15.924 15.75M32.77 33.623l14.55 21.91M31.381 33.6l7.299 21.917M15.83 3.268l10.2 19.853M23.168.852l4.35 21.525M30.21.453l-1.357 21.924M34.81 31.836l22.213 12.611M34.81 30.148l21.871 7.556M34.546 28.391l21.864 3.99M4.211 14.046l19.243 11.208M1.435 20.49l21.903 6.152M38.12 1.849l-7.825 20.889M45.543 6.06 31.815 23.205M50.058 10.678 32.83 23.988M55.44 21.433l-21.158 4.22M56.224 27.279l-21.547-.038M53.494 16.064l-19.863 8.89M1.675 36.246 23.13 29.48M.458 27.87l22.515.138M4.809 43.028 23.71 31.245M9.323 48.413 24.904 31.99M16.032 52.809 26.308 33.3M23.354 55.317l4.367-22.016M29.325 33.6l1.311 21.917"/></g><defs><clipPath id="ga"><path fill="#fff" d="M0 0h58v56H0z"/></clipPath></defs></symbol><symbol viewBox="0 0 96 96" id="cta--checkbox" xmlns="http://www.w3.org/2000/svg"><path d="m95.118 21.399-8.517-8.517a3.004 3.004 0 0 0-4.257 0L38.799 58.854l-24.96-24.972a3.051 3.051 0 0 0-4.314 0L.897 42.516a3.051 3.051 0 0 0 0 4.314l35.499 36.324c.687.69 1.62.927 2.517.81.927.138 1.893-.096 2.604-.81l53.601-57.495a3.013 3.013 0 0 0 0-4.26z"/></symbol><symbol fill="none" viewBox="0 0 29 29" id="cta--fileAdd" xmlns="http://www.w3.org/2000/svg"><path d="M22.07 5.568c-2.668-2.668-7.012-2.668-9.677 0l-7.391 7.386a.255.255 0 0 0-.074.18c0 .069.025.134.074.182l1.045 1.045a.255.255 0 0 0 .36 0l7.39-7.386a4.826 4.826 0 0 1 3.436-1.421c1.297 0 2.518.504 3.433 1.421a4.825 4.825 0 0 1 1.421 3.433 4.82 4.82 0 0 1-1.421 3.432l-7.534 7.53-1.22 1.221a2.928 2.928 0 0 1-4.138 0 2.903 2.903 0 0 1-.855-2.067c0-.782.303-1.515.855-2.068l7.474-7.47a1 1 0 0 1 .705-.292h.003c.266 0 .512.104.7.291.19.19.291.44.291.706a.986.986 0 0 1-.292.7l-6.108 6.102a.255.255 0 0 0-.074.181c0 .068.026.134.074.182l1.045 1.045a.255.255 0 0 0 .36 0l6.105-6.106a2.958 2.958 0 0 0 .873-2.107c0-.796-.312-1.546-.873-2.107a2.989 2.989 0 0 0-4.22 0l-.724.728-6.746 6.743a4.878 4.878 0 0 0-1.439 3.474c0 1.312.513 2.544 1.439 3.47a4.906 4.906 0 0 0 3.475 1.436 4.895 4.895 0 0 0 3.472-1.436l8.756-8.751a6.809 6.809 0 0 0 2.003-4.837 6.787 6.787 0 0 0-2.003-4.84Z" fill="#666"/></symbol><symbol viewBox="0 0 25 25" id="cta--mail" xmlns="http://www.w3.org/2000/svg"><g stroke="currentColor" stroke-width="2" stroke-linecap="round" stroke-linejoin="round"><path d="M4.896 4.5h16c1.1 0 2 .9 2 2v12c0 1.1-.9 2-2 2h-16c-1.1 0-2-.9-2-2v-12c0-1.1.9-2 2-2Z"/><path d="m22.896 6.5-10 7-10-7"/></g></symbol><symbol viewBox="0 0 25 25" id="cta--phone" xmlns="http://www.w3.org/2000/svg"><path d="M22.896 17.42v3a2 2 0 0 1-2.18 2 19.791 19.791 0 0 1-8.63-3.07 19.5 19.5 0 0 1-6-6 19.79 19.79 0 0 1-3.07-8.67 2 2 0 0 1 1.99-2.18h3a2 2 0 0 1 2 1.72c.127.96.362 1.903.7 2.81a2 2 0 0 1-.45 2.11l-1.27 1.27a16.001 16.001 0 0 0 6 6l1.27-1.27a2 2 0 0 1 2.11-.45c.908.339 1.85.574 2.81.7a2 2 0 0 1 1.72 2.03Z" stroke="currentColor" stroke-width="2" stroke-linecap="round" stroke-linejoin="round"/></symbol><symbol fill="none" viewBox="0 0 3275 375" id="demonstration--figure-line" xmlns="http://www.w3.org/2000/svg"><path d="M976.079 28.818c-17.043-3.03-37.643-.512-65.571 9.27-25.213 8.831-39.407 24.205-48.326 43.406-9.266 19.95-12.9 44.149-15.762 70.568-.42 3.876-.824 7.814-1.231 11.791l-.002.018c-2.274 22.185-4.669 45.556-10.683 65.978-7.283 24.735-20.454 47.379-46.762 60.497-29.011 14.467-56.966 2.475-80.454-16.124-23.531-18.633-46.762-47.035-68.807-74.265l-2.325-2.872-.237-.293c-21.667-26.774-42.327-52.305-62.677-69.944-21.533-18.665-38.55-24.864-53.259-20.076-35.207 11.461-46.24 41.943-59.009 77.222l-1.496 4.129c-6.267 17.252-13.612 36.391-26.577 50.113-14.07 14.891-33.445 22.249-60.269 19.178-27.732-3.175-44.7-16.86-55.635-35.068-8.562-14.257-13.53-31.692-17.925-47.114a908.68 908.68 0 0 0-2.333-8.097c-5.421-18.38-11.001-33.247-20.969-43.634-9.134-9.518-23.561-16.816-50.43-16.081-85.773 12.243-134.347 33.099-162.054 68.383-28.021 35.684-37.35 89.366-35.445 174.732l-27.593.616c-1.916-85.882 6.833-148.466 41.334-192.403 34.735-44.234 92.925-66.334 180.639-78.77l.741-.105.747-.025c33.237-1.08 56.129 8.025 71.971 24.534 15.092 15.726 22.131 36.636 27.53 54.94.926 3.14 1.805 6.198 2.66 9.172v.001c4.464 15.533 8.273 28.79 14.785 39.633 6.928 11.535 16.663 19.743 35.115 21.856 19.36 2.216 29.737-2.948 37.074-10.713 8.441-8.934 14.158-22.584 20.694-40.577.753-2.072 1.513-4.2 2.289-6.372l.005-.013.001-.005c11.759-32.912 27.158-76.013 75.61-91.786 29.407-9.573 56.838 5.498 79.873 25.465 22.258 19.293 44.321 46.568 65.335 72.548l1.435 1.774 1.842 2.276c22.551 27.854 43.822 53.628 64.489 69.993 20.709 16.398 36.648 20.226 51.013 13.063 17.068-8.511 26.598-23.207 32.6-43.589 5.227-17.752 7.331-38.119 9.634-60.415.426-4.118.858-8.301 1.318-12.546 2.851-26.316 6.776-54.694 18.171-79.227 11.744-25.283 31.316-46.3 64.234-57.83C931.59 1.452 957.34-2.555 980.909 1.636c23.851 4.241 43.691 16.553 62.601 35.161 18.66 18.37 37.06 43.54 58 74.492 9.22 13.636 18.69 28.016 28.9 43.525v.001c13.72 20.834 28.77 43.704 46.37 69.536 57.33 84.139 149.71 116.551 238.02 121.459 44.07 2.449 86.63-2.009 122.35-10.079 36.01-8.137 63.95-19.692 79.44-30.664l.04.056v-.179H3155.4c4.69-28.581 29.5-50.386 59.4-50.386 33.25 0 60.2 26.962 60.2 60.221 0 33.26-26.95 60.222-60.2 60.222-27.06 0-49.96-17.864-57.54-42.448H1624.94c-19.81 11.945-48.5 22.603-81.71 30.108-38.04 8.597-83.17 13.316-129.96 10.715-93.41-5.191-195.46-39.788-259.29-133.476-17.29-25.374-33.02-49.254-47.13-70.666-10.27-15.591-19.68-29.874-28.2-42.474-20.9-30.907-37.98-54.025-54.5-70.283-16.28-16.02-31.311-24.678-48.071-27.658ZM3075.53 223v-71h52.6v14.1h-36.2v14.2h17.5c8.07 0 14.14 1.9 18.2 5.7 4.14 3.733 6.2 8.8 6.2 15.2 0 4.4-.9 8.233-2.7 11.5-1.73 3.267-4.33 5.8-7.8 7.6-3.46 1.8-7.8 2.7-13 2.7h-34.8Zm16.4-14.1h16.1c2.2 0 3.94-.4 5.2-1.2 1.34-.8 2.27-1.8 2.8-3 .6-1.267.9-2.6.9-4 0-1.333-.26-2.6-.8-3.8-.46-1.2-1.36-2.133-2.7-2.8-1.33-.733-3.2-1.1-5.6-1.1h-15.9v15.9Z" fill="#fff"/><path d="M82.7 270h17.7l24.4 71H108l-5.5-15.9H80.4L75 341H58.2l24.5-71Zm17.1 43.8-8.3-27.3-8.5 27.3h16.8Z" fill="#fff"/></symbol><symbol viewBox="0 0 188 37" id="logo" xmlns="http://www.w3.org/2000/svg"><path d="M14.27.445C9.065 1.57 4.129 5.547 1.74 10.533c-2.454 5.098-2.303 11.684.392 16.847 1.512 2.911 5.086 6.284 8.172 7.772C13.24 36.546 15.175 37 18.264 37h2.271v-8.049h-2.36c-2.874-.032-4.936-.911-7.055-3.037-6.082-6.07-2.842-16.213 5.661-17.726 3.27-.61 6.355.393 8.927 2.882l1.365 1.366 4.48-.09 4.447-.09-1.12-2.249c-1.542-3.123-4.904-6.463-8.019-8.013A19.082 19.082 0 0 0 14.27.445Z" fill="currentColor"/><path d="M15 21.918v3.919h11.105V36H34l-.059-8.943-.073-8.898-9.415-.09L15 18v3.918ZM38 36V18h9.42c1.752 0 3.088.148 4.008.444.91.284 1.696.86 2.233 1.637.583.857.88 1.872.848 2.903a4.748 4.748 0 0 1-.604 2.505 4.847 4.847 0 0 1-1.83 1.84c-.621.333-1.29.569-1.985.698.52.152 1.016.375 1.473.663.335.282.638.6.902.947.301.346.567.722.791 1.12L56 36h-6.39l-3.02-5.5a4.216 4.216 0 0 0-1.022-1.398 2.398 2.398 0 0 0-1.388-.419h-.497v7.306L38 36Zm5.68-10.708h2.381a8.574 8.574 0 0 0 1.498-.244c.367-.068.695-.27.916-.566a1.792 1.792 0 0 0-.206-2.382c-.374-.312-1.077-.467-2.108-.464h-2.485l.003 3.656ZM57 27.504c0-3.002.83-5.338 2.49-7.009 1.66-1.67 3.982-2.502 6.965-2.495 3.053 0 5.404.821 7.055 2.463 1.65 1.642 2.48 3.942 2.49 6.898 0 2.139-.356 3.9-1.067 5.283a7.714 7.714 0 0 1-3.127 3.208C70.442 36.617 68.744 37 66.712 37c-2.07 0-3.783-.33-5.137-.991a7.73 7.73 0 0 1-3.294-3.133c-.856-1.436-1.283-3.226-1.281-5.372Zm5.667.024c0 1.854.344 3.186 1.032 3.997a3.913 3.913 0 0 0 4.34.905 3.914 3.914 0 0 0 1.29-.88c.67-.794 1.004-2.22 1.004-4.278 0-1.728-.349-2.99-1.046-3.79a3.557 3.557 0 0 0-2.846-1.197 3.445 3.445 0 0 0-2.753 1.215c-.68.81-1.021 2.154-1.021 4.029ZM77 30.61l5.51-.357a4.01 4.01 0 0 0 .726 2.002c.303.37.692.664 1.134.858.443.194.926.281 1.41.256a2.868 2.868 0 0 0 1.911-.57c.206-.157.373-.357.488-.585a1.67 1.67 0 0 0 .18-.736 1.646 1.646 0 0 0-.174-.707 1.68 1.68 0 0 0-.465-.568c-.425-.377-1.413-.73-2.962-1.068-2.54-.56-4.35-1.303-5.429-2.23a4.493 4.493 0 0 1-1.23-1.588 4.405 4.405 0 0 1-.405-1.954 4.725 4.725 0 0 1 .836-2.67 5.518 5.518 0 0 1 2.515-1.98c1.124-.476 2.66-.713 4.607-.713 2.392 0 4.216.437 5.473 1.31 1.257.874 2.005 2.26 2.242 4.16l-5.45.313a2.453 2.453 0 0 0-.257-.984 2.5 2.5 0 0 0-.636-.802 2.594 2.594 0 0 0-1.942-.578 2.353 2.353 0 0 0-1.523.42 1.29 1.29 0 0 0-.375.451c-.088.177-.134.37-.133.567a1.005 1.005 0 0 0 .421.79c.274.238.92.464 1.94.677 2.53.534 4.347 1.074 5.451 1.62a5.672 5.672 0 0 1 2.388 2.034c.501.82.76 1.76.749 2.717a5.731 5.731 0 0 1-.996 3.255 6.223 6.223 0 0 1-2.795 2.278 11.472 11.472 0 0 1-4.506.766c-3.183 0-5.389-.6-6.617-1.802A7.057 7.057 0 0 1 77 30.61ZM96 30.61l5.507-.357c.058.718.309 1.409.727 2.002.303.37.692.664 1.134.858.443.194.926.281 1.41.256a2.86 2.86 0 0 0 1.908-.57 1.684 1.684 0 0 0 .673-1.321 1.673 1.673 0 0 0-.64-1.275c-.425-.377-1.414-.73-2.966-1.068-2.537-.56-4.347-1.303-5.43-2.23a4.493 4.493 0 0 1-1.23-1.588 4.404 4.404 0 0 1-.406-1.954 4.728 4.728 0 0 1 .84-2.67 5.52 5.52 0 0 1 2.515-1.98c1.119-.476 2.654-.713 4.605-.713 2.396 0 4.222.437 5.478 1.31 1.255.874 2.002 2.26 2.242 4.16l-5.452.313a2.48 2.48 0 0 0-.894-1.788 2.593 2.593 0 0 0-1.945-.577 2.342 2.342 0 0 0-1.519.42 1.26 1.26 0 0 0-.512 1.018c.005.155.046.306.119.443s.176.256.302.349c.274.237.922.463 1.945.676 2.53.534 4.347 1.074 5.452 1.62a5.674 5.674 0 0 1 2.388 2.034c.501.82.761 1.76.749 2.717a5.745 5.745 0 0 1-1 3.255 6.208 6.208 0 0 1-2.788 2.278 11.476 11.476 0 0 1-4.507.766c-3.186 0-5.392-.6-6.619-1.802A7.036 7.036 0 0 1 96 30.61ZM114 30.61l5.514-.357c.058.718.309 1.409.727 2.002.304.37.693.663 1.136.857.442.194.926.282 1.41.257a2.869 2.869 0 0 0 1.913-.57 1.682 1.682 0 0 0 .669-1.321 1.655 1.655 0 0 0-.174-.706 1.694 1.694 0 0 0-.462-.569c-.43-.377-1.415-.73-2.968-1.068-2.539-.56-4.35-1.303-5.434-2.23a4.502 4.502 0 0 1-1.231-1.588 4.398 4.398 0 0 1-.405-1.954c.003-.952.294-1.881.836-2.67a5.535 5.535 0 0 1 2.521-1.98c1.12-.476 2.656-.713 4.608-.713 2.397 0 4.224.437 5.48 1.31 1.256.874 2.004 2.26 2.244 4.16l-5.455.313a2.825 2.825 0 0 0-.913-1.802 2.99 2.99 0 0 0-1.924-.563c-.541-.039-1.08.11-1.52.42-.16.12-.289.275-.378.451-.089.177-.135.371-.135.568a1.022 1.022 0 0 0 .422.79c.274.238.921.464 1.942.677 2.531.534 4.35 1.074 5.456 1.62a5.693 5.693 0 0 1 2.393 2.034c.494.822.746 1.763.727 2.717a5.735 5.735 0 0 1-.996 3.255 6.236 6.236 0 0 1-2.765 2.278 11.486 11.486 0 0 1-4.509.766c-3.189 0-5.396-.6-6.623-1.802A7.054 7.054 0 0 1 114 30.61ZM133 27.504c0-3.002.83-5.338 2.49-7.009 1.66-1.67 3.982-2.502 6.966-2.495 3.052 0 5.403.821 7.054 2.463 1.65 1.642 2.481 3.942 2.49 6.898 0 2.139-.356 3.9-1.067 5.283a7.717 7.717 0 0 1-3.127 3.208c-1.366.765-3.065 1.148-5.098 1.148-2.032 0-3.743-.33-5.133-.991a7.7 7.7 0 0 1-3.294-3.133c-.852-1.436-1.279-3.226-1.281-5.372Zm5.667.024c0 1.854.344 3.186 1.032 3.997a3.908 3.908 0 0 0 5.634.025c.667-.794 1-2.22 1-4.278 0-1.728-.347-2.99-1.042-3.79a3.574 3.574 0 0 0-2.846-1.197 3.439 3.439 0 0 0-2.75 1.215c-.685.81-1.028 2.154-1.028 4.029ZM155.004 18H169v3.866h-8.312v3.143h7.11v3.636h-7.11V36H155l.004-18ZM171 18h17v4.446h-5.703V36h-5.594V22.446H171V18Z" fill="currentColor"/></symbol><symbol fill="none" viewBox="0 0 1400 1080" id="preloader--preloader-bg" xmlns="http://www.w3.org/2000/svg"><g filter="url(#ra)" fill-rule="evenodd" clip-rule="evenodd"><path d="M391.405 849.357c21.507-86.359 132.799-108.625 201.531-165.247 69.667-57.392 114.492-152.982 203.505-168.425 91.765-15.919 198.055 17.072 257.939 88.373 57.19 68.104-3.09 176.652 32.89 257.933 39.46 89.145 195.74 125.865 179.52 221.929-15.65 92.68-161.86 82.6-239.83 135.21-67.818 45.76-103.676 144.58-185.248 151.61-81.737 7.05-145.379-66.25-209.355-117.59-57.399-46.07-102.8-100.03-140.492-163.19-45.664-76.53-121.974-154.212-100.46-240.603Z" fill="#6579C4"/><path d="M719.019 2.515c14.963-113.861 17.062-262.74 122.715-307.851 105.706-45.133 202.276 78.203 307.686 124.083 78.69 34.253 164.11 44.964 223.35 107.052 80.24 84.104 178.22 180.005 160.03 294.769-18.81 118.751-132.52 204.155-245.59 245.169-98.4 35.695-199.91-12.151-298.324-47.876-86.205-31.292-173.635-64.694-223.588-141.576-52.432-80.697-58.815-178.386-46.279-273.77Z" fill="#102A89"/><path d="M-217.013 270.099c14.885-55.837 92.481-69.073 128-114.644C-54.691 111.419-56.176 42.94-12.686 7.946 30.359-26.69 92.774-19.787 146.194-33.8c55.787-14.635 110.126-57.894 165.953-43.467 57.005 14.732 78.915 87.106 128.111 119.464 46.968 30.892 115.992 24.145 153.677 65.875 37.347 41.355 32.687 105.104 48.9 158.441 16.249 53.457 50.144 103.382 47.654 159.211-2.495 55.957-30.945 107.945-61.659 154.782-29.33 44.728-68.048 83.09-113.154 111.801-42.486 27.044-98.719 22.944-141.151 50.073-52.448 33.531-73.102 122.231-135.173 126.591-60.319 4.237-89.376-82.365-144.62-106.938-51.231-22.787-117.87 1.557-163.996-30.331-45.537-31.482-67.837-88.588-84.454-141.43-15.854-50.409.874-105.085-9.376-156.93-11.21-56.706-68.812-107.378-53.919-163.242Z" fill="#051759"/><path d="M176.862 586.706c76.357-45.905 170.808 16.954 259.496 25.445 89.896 8.606 189.275-27.359 263.143 24.591 76.15 53.556 127.936 151.976 119.781 244.716-7.789 88.58-127.27 122.802-159.388 205.712-35.226 90.95 49.263 227.31-30.229 283.81-76.694 54.52-172.928-55.89-265.312-73.74-80.346-15.53-175.674 29.05-238.326-23.59-62.777-52.75-55.872-149.56-64.743-231.08-7.96-73.132-1.85-143.375 16.23-214.687 21.904-86.394 22.962-195.255 99.348-241.177Z" fill="#6579C4"/><path d="M1007.85 219.583c91.09-69.913 197.84-173.667 304.4-130.91 106.62 42.779 87.66 198.187 129.71 305.091 31.4 79.812 84.19 147.73 82.15 233.471-2.75 116.143-1.32 253.152-95.32 321.427-97.27 70.648-238.01 50.686-346.92-.208-94.78-44.294-132.684-149.829-176.976-244.614-38.797-83.023-76.967-168.404-57.909-258.041 20.005-94.086 84.567-167.648 160.865-226.216Z" fill="#102A89"/><path d="M156.18-252.974c49.962-28.931 114.165 16.597 171.463 9.515 55.367-6.843 102.685-56.286 158.146-50.256 54.894 5.969 94.141 54.992 141.804 82.871 49.774 29.115 118.743 36.977 148.018 86.657 29.893 50.73-5.738 117.37 6.185 175.032 11.383 55.05 64.944 99.101 62.11 155.244-2.809 55.639-51.131 97.393-77.343 146.552-26.271 49.269-37.572 108.523-78.766 146.215-41.287 37.777-98.12 54.394-152.914 65.77-52.327 10.863-106.794 10.588-158.959-1.025-49.136-10.938-85.993-53.608-135.151-64.448-60.761-13.399-138.013 34.674-184.972-6.146-45.634-39.668-5.006-121.419-26.703-177.856-20.122-52.338-84.425-82.266-94.51-137.425-9.955-54.454 14.617-110.582 40.192-159.677C-.822-28.786 49.622-55.593 78.996-99.479c32.128-48.002 27.198-124.551 77.184-153.495Z" fill="#051759"/></g><defs><filter id="ra" x="-619.457" y="-715.104" width="2554.46" height="2501.07" filterUnits="userSpaceOnUse" color-interpolation-filters="sRGB"><feFlood flood-opacity="0" result="BackgroundImageFix"/><feBlend in="SourceGraphic" in2="BackgroundImageFix" result="shape"/><feGaussianBlur stdDeviation="200" result="effect1_foregroundBlur_168_1515"/></filter></defs></symbol><symbol fill="none" viewBox="0 0 76 76" id="priority--icon-angle" xmlns="http://www.w3.org/2000/svg"><g fill="#fff"><path d="M0 0h10v76H0z"/><path d="M76 0v10H0V0z"/></g></symbol><symbol fill="none" viewBox="0 0 134 134" id="priority--medal-gold" xmlns="http://www.w3.org/2000/svg"><circle cx="67" cy="67" r="67" fill="#FCC609"/><circle cx="67.5" cy="66.5" r="52" stroke="#4C4949"/><path d="M52.58 72.12c-.707 0-1.36-.14-1.96-.42a4.868 4.868 0 0 1-1.52-1.18 5.82 5.82 0 0 1-1-1.72 5.946 5.946 0 0 1-.34-2 6.3 6.3 0 0 1 .34-2.08 5.5 5.5 0 0 1 1-1.72c.44-.507.953-.9 1.54-1.18a4.322 4.322 0 0 1 1.96-.44c.867 0 1.62.213 2.26.64.653.427 1.2.967 1.64 1.62v-2.08h1.56v10.32c0 .987-.24 1.82-.72 2.5-.467.68-1.107 1.193-1.92 1.54-.8.36-1.693.54-2.68.54-1.173 0-2.133-.207-2.88-.62A5.475 5.475 0 0 1 48 74.16l1.02-.9a3.9 3.9 0 0 0 1.6 1.38c.667.307 1.373.46 2.12.46.64 0 1.227-.12 1.76-.36.547-.227.98-.58 1.3-1.06.333-.48.5-1.08.5-1.8v-1.84a4.18 4.18 0 0 1-1.6 1.52 4.274 4.274 0 0 1-2.12.56Zm.54-1.44c.373 0 .733-.067 1.08-.2.347-.133.667-.307.96-.52.293-.227.54-.48.74-.76.2-.28.333-.567.4-.86v-3c-.187-.48-.453-.9-.8-1.26a3.68 3.68 0 0 0-1.18-.86 3.084 3.084 0 0 0-1.36-.32 3.02 3.02 0 0 0-1.44.34 3.329 3.329 0 0 0-1.06.92c-.293.373-.52.793-.68 1.26-.16.467-.24.94-.24 1.42 0 .52.093 1.013.28 1.48.187.453.44.86.76 1.22a3.38 3.38 0 0 0 2.54 1.14Zm12.34 1.52c-.786 0-1.5-.14-2.14-.42a5.297 5.297 0 0 1-1.66-1.18 5.454 5.454 0 0 1-1.08-1.74 5.646 5.646 0 0 1-.38-2.06c0-.733.127-1.427.38-2.08A5.222 5.222 0 0 1 61.66 63a4.9 4.9 0 0 1 1.66-1.18 5.214 5.214 0 0 1 2.16-.44c.774 0 1.48.147 2.12.44.64.28 1.194.673 1.66 1.18.48.493.847 1.067 1.1 1.72.254.653.38 1.347.38 2.08 0 .72-.126 1.407-.38 2.06a5.457 5.457 0 0 1-1.08 1.74 5.236 5.236 0 0 1-1.68 1.18c-.64.28-1.353.42-2.14.42ZM62 66.82c0 .72.154 1.373.46 1.96.32.587.74 1.053 1.26 1.4.52.333 1.1.5 1.74.5.64 0 1.22-.173 1.74-.52a3.656 3.656 0 0 0 1.26-1.4c.32-.6.48-1.26.48-1.98s-.16-1.373-.48-1.96a3.656 3.656 0 0 0-1.26-1.4c-.52-.347-1.1-.52-1.74-.52-.64 0-1.22.18-1.74.54-.52.347-.94.813-1.26 1.4-.306.587-.46 1.247-.46 1.98Zm10.913-9.42h1.76v11.9c0 .573.08.927.24 1.06.16.133.353.2.58.2.28 0 .547-.027.8-.08.253-.067.467-.133.64-.2l.28 1.44c-.293.12-.64.22-1.04.3-.4.08-.753.12-1.06.12-.68 0-1.22-.193-1.62-.58-.386-.387-.58-.927-.58-1.62V57.4Zm5.003 9.4c0-.987.2-1.887.6-2.7.413-.827.973-1.487 1.68-1.98.72-.493 1.54-.74 2.46-.74.84 0 1.593.22 2.26.66.666.44 1.186.973 1.56 1.6V57.4h1.76V70c0 .213.04.373.12.48.093.093.24.147.44.16V72c-.334.053-.594.08-.78.08-.347 0-.654-.12-.92-.36-.254-.24-.38-.507-.38-.8v-.88a4.497 4.497 0 0 1-1.66 1.58 4.377 4.377 0 0 1-2.16.58c-.72 0-1.387-.14-2-.42a5.121 5.121 0 0 1-1.58-1.2 5.93 5.93 0 0 1-1.04-1.72 5.926 5.926 0 0 1-.36-2.06Zm8.56 1.54v-3c-.16-.453-.42-.86-.78-1.22a4.126 4.126 0 0 0-1.22-.88 2.86 2.86 0 0 0-1.32-.34c-.52 0-.994.113-1.42.34a3.414 3.414 0 0 0-1.08.88c-.294.36-.52.773-.68 1.24a4.47 4.47 0 0 0-.24 1.46c0 .52.086 1.013.26 1.48.186.467.44.88.76 1.24.333.36.713.64 1.14.84.44.2.913.3 1.42.3.32 0 .646-.06.98-.18.346-.12.673-.287.98-.5.306-.213.566-.46.78-.74.213-.293.353-.6.42-.92Z" fill="#0E1016"/></symbol><symbol fill="none" viewBox="0 0 134 134" id="priority--medal-platinum" xmlns="http://www.w3.org/2000/svg"><circle cx="67" cy="67" r="67" fill="#D97740"/><circle cx="67.5" cy="66.5" r="52" stroke="#4C4949"/><path d="M32.04 74.2c-.853 0-1.613-.213-2.28-.64a4.826 4.826 0 0 1-1.58-1.62v6.32h-1.76v-14.7h1.56v1.96a4.717 4.717 0 0 1 1.62-1.54 4.16 4.16 0 0 1 2.18-.6c.72 0 1.38.147 1.98.44.6.293 1.12.693 1.56 1.2.44.507.78 1.087 1.02 1.74.253.64.38 1.313.38 2.02 0 .987-.2 1.893-.6 2.72-.387.827-.933 1.487-1.64 1.98-.707.48-1.52.72-2.44.72Zm-.54-1.52c.52 0 .987-.107 1.4-.32.427-.227.787-.52 1.08-.88.307-.373.54-.793.7-1.26.16-.467.24-.947.24-1.44 0-.52-.093-1.013-.28-1.48a3.705 3.705 0 0 0-.76-1.24c-.32-.36-.7-.64-1.14-.84a3.087 3.087 0 0 0-1.4-.32c-.32 0-.653.06-1 .18a3.75 3.75 0 0 0-.96.52 3.44 3.44 0 0 0-.78.74c-.213.28-.353.58-.42.9v2.98c.2.453.467.867.8 1.24s.72.673 1.16.9c.44.213.893.32 1.36.32Zm7.42-13.28h1.76v11.9c0 .573.08.927.24 1.06.16.133.354.2.58.2.28 0 .548-.027.8-.08.254-.067.468-.133.64-.2l.28 1.44c-.292.12-.64.22-1.04.3-.4.08-.752.12-1.06.12-.68 0-1.22-.193-1.62-.58-.386-.387-.58-.927-.58-1.62V59.4Zm4.864 11.58c0-.667.186-1.24.56-1.72.386-.493.913-.873 1.58-1.14.666-.267 1.44-.4 2.32-.4.466 0 .96.04 1.48.12.52.067.98.173 1.38.32v-.76c0-.8-.24-1.427-.72-1.88-.48-.467-1.16-.7-2.04-.7a4.43 4.43 0 0 0-1.66.32c-.52.2-1.074.493-1.66.88l-.64-1.24a8.204 8.204 0 0 1 2.04-1.04c.68-.24 1.386-.36 2.12-.36 1.333 0 2.386.373 3.16 1.12.773.733 1.16 1.76 1.16 3.08V72c0 .213.04.373.12.48.093.093.24.147.44.16V74a8.803 8.803 0 0 1-.46.06c-.12.013-.22.02-.3.02-.414 0-.727-.113-.94-.34a1.286 1.286 0 0 1-.34-.72l-.04-.66c-.454.587-1.047 1.04-1.78 1.36-.734.32-1.46.48-2.18.48-.694 0-1.314-.14-1.86-.42a3.376 3.376 0 0 1-1.28-1.16 3.044 3.044 0 0 1-.46-1.64Zm6.8.74c.16-.187.286-.373.38-.56.093-.2.14-.367.14-.5v-1.3a6.926 6.926 0 0 0-1.3-.36c-.454-.093-.9-.14-1.34-.14-.894 0-1.62.18-2.18.54-.547.347-.82.827-.82 1.44 0 .333.086.66.26.98.186.307.453.56.8.76.36.2.8.3 1.32.3a3.89 3.89 0 0 0 1.56-.32c.493-.227.886-.507 1.18-.84ZM61 73.48c-.147.067-.347.153-.6.26-.254.107-.547.2-.88.28a4.53 4.53 0 0 1-1.06.12c-.427 0-.82-.073-1.18-.22-.36-.16-.647-.4-.86-.72-.214-.333-.32-.747-.32-1.24v-7.02h-1.42v-1.38h1.42v-3.48h1.76v3.48h2.34v1.38h-2.34v6.48c.026.373.153.653.38.84.226.173.493.26.8.26.346 0 .666-.06.96-.18a6.04 6.04 0 0 0 .58-.26l.42 1.4Zm1.63.52V63.56h1.76V74h-1.76Zm0-12.4v-2.2h1.76v2.2h-1.76ZM76.3 74h-1.76v-5.84c0-1.107-.173-1.913-.52-2.42-.333-.52-.846-.78-1.54-.78-.48 0-.96.12-1.44.36a4.41 4.41 0 0 0-1.26.98c-.36.4-.62.867-.78 1.4V74h-1.76V63.56h1.6v2.24c.28-.493.64-.92 1.08-1.28.44-.36.94-.64 1.5-.84.56-.2 1.147-.3 1.76-.3.6 0 1.1.113 1.5.34.414.213.734.52.96.92.24.387.407.847.5 1.38.107.533.16 1.113.16 1.74V74Zm2.637-4.18v-6.26h1.76v5.92c0 1.067.187 1.867.56 2.4.373.533.927.8 1.66.8.48 0 .94-.1 1.38-.3.454-.213.86-.513 1.22-.9s.64-.847.84-1.38v-6.54h1.76V72c0 .213.04.373.12.48.094.093.24.147.44.16V74c-.2.027-.36.04-.48.04-.106.013-.213.02-.32.02a1.3 1.3 0 0 1-.86-.3 1.071 1.071 0 0 1-.38-.78l-.04-1.22a4.772 4.772 0 0 1-1.84 1.8 5.02 5.02 0 0 1-2.5.64c-1.093 0-1.92-.367-2.48-1.1-.56-.747-.84-1.84-.84-3.28ZM106.79 74h-1.76v-5.84c0-1.093-.18-1.9-.54-2.42-.347-.52-.867-.78-1.56-.78-.707 0-1.347.26-1.92.78-.573.507-.98 1.167-1.22 1.98V74h-1.76v-5.84c0-1.107-.173-1.913-.52-2.42-.347-.52-.867-.78-1.56-.78-.693 0-1.333.253-1.92.76-.573.493-.98 1.153-1.22 1.98V74h-1.76V63.56h1.6v2.24c.427-.773.98-1.367 1.66-1.78.68-.427 1.447-.64 2.3-.64.867 0 1.56.24 2.08.72.52.467.84 1.073.96 1.82.467-.827 1.033-1.453 1.7-1.88.667-.44 1.427-.66 2.28-.66.6 0 1.1.113 1.5.34.413.213.74.52.98.92.24.387.413.847.52 1.38.107.533.16 1.113.16 1.74V74Z" fill="#0E1016"/></symbol><symbol fill="none" viewBox="0 0 134 134" id="priority--medal-silver" xmlns="http://www.w3.org/2000/svg"><circle cx="67" cy="67" r="67" fill="#726D6D"/><circle cx="67.5" cy="66.5" r="52" stroke="#4C4949"/><path d="M47 72.2c-.867 0-1.68-.14-2.44-.42a5.315 5.315 0 0 1-1.96-1.3l.68-1.24c.6.56 1.2.96 1.8 1.2.6.24 1.213.36 1.84.36.72 0 1.307-.133 1.76-.4.453-.28.68-.687.68-1.22 0-.387-.12-.673-.36-.86-.227-.187-.553-.34-.98-.46-.427-.133-.933-.28-1.52-.44-.72-.213-1.327-.44-1.82-.68-.493-.24-.867-.54-1.12-.9-.253-.36-.38-.813-.38-1.36 0-.667.173-1.227.52-1.68.347-.467.82-.82 1.42-1.06.613-.24 1.307-.36 2.08-.36.773 0 1.473.12 2.1.36s1.167.593 1.62 1.06l-.8 1.22a3.968 3.968 0 0 0-1.36-.94 4.142 4.142 0 0 0-1.66-.32c-.36 0-.713.047-1.06.14-.347.08-.633.233-.86.46-.227.213-.34.52-.34.92 0 .333.087.6.26.8.187.187.453.347.8.48.36.133.793.28 1.3.44a22.74 22.74 0 0 1 2.04.68c.587.227 1.04.52 1.36.88.32.36.48.86.48 1.5 0 .987-.373 1.76-1.12 2.32-.747.547-1.733.82-2.96.82Zm6.186-.2V61.56h1.76V72h-1.76Zm0-12.4v-2.2h1.76v2.2h-1.76Zm4.649-2.2h1.76v11.9c0 .573.08.927.24 1.06.16.133.353.2.58.2.28 0 .547-.027.8-.08a6.24 6.24 0 0 0 .64-.2l.28 1.44c-.293.12-.64.22-1.04.3-.4.08-.753.12-1.06.12-.68 0-1.22-.193-1.62-.58-.387-.387-.58-.927-.58-1.62V57.4ZM66.127 72l-4.1-10.44h1.84l3.28 8.76 3.28-8.76h1.72L68.047 72h-1.92Zm12.05.2c-.787 0-1.507-.14-2.16-.42a5.544 5.544 0 0 1-1.68-1.18 5.758 5.758 0 0 1-1.1-1.74 5.703 5.703 0 0 1-.38-2.08c0-.987.226-1.887.68-2.7a5.301 5.301 0 0 1 1.88-1.96c.813-.493 1.74-.74 2.78-.74 1.053 0 1.966.253 2.74.76a5.042 5.042 0 0 1 1.82 1.96 5.308 5.308 0 0 1 .64 3c0 .12-.007.213-.02.28h-8.66c.053.68.24 1.287.56 1.82.333.52.76.933 1.28 1.24.52.293 1.08.44 1.68.44.64 0 1.24-.16 1.8-.48.573-.32.966-.74 1.18-1.26l1.52.42c-.227.507-.567.96-1.02 1.36-.44.4-.967.713-1.58.94-.6.227-1.254.34-1.96.34Zm-3.52-6.04h7.12c-.054-.68-.247-1.28-.58-1.8a3.613 3.613 0 0 0-1.28-1.22 3.44 3.44 0 0 0-1.72-.44c-.614 0-1.18.147-1.7.44-.52.293-.947.7-1.28 1.22-.32.52-.507 1.12-.56 1.8Zm16.236-3.06c-.88.013-1.66.24-2.34.68a3.484 3.484 0 0 0-1.42 1.78V72h-1.76V61.56h1.64v2.42c.36-.72.834-1.3 1.42-1.74.6-.453 1.227-.707 1.88-.76h.34c.093 0 .173.007.24.02v1.6Z" fill="#0E1016"/></symbol><symbol fill="none" viewBox="0 0 106 102" id="process--icon" xmlns="http://www.w3.org/2000/svg"><ellipse cx="53" cy="51" rx="53" ry="51" fill="#102A89"/><path d="M67.763 28.083H38.596c-2.291 0-4.145 1.875-4.145 4.167l-.021 26.937c0 1.438.729 2.709 1.833 3.459l16.917 11.27 16.896-11.27a4.178 4.178 0 0 0 1.833-3.459l.02-26.937a4.179 4.179 0 0 0-4.166-4.167Zm-18.75 31.25L38.596 48.917l2.938-2.938 7.479 7.458 15.813-15.812 2.937 2.958-18.75 18.75Z" fill="#fff"/></symbol><symbol fill="none" viewBox="0 0 42 13" id="projects--arrow-more" xmlns="http://www.w3.org/2000/svg"><path d="M41.53 7.03a.75.75 0 0 0 0-1.06l-4.773-4.773a.75.75 0 0 0-1.06 1.06L39.939 6.5l-4.242 4.243a.75.75 0 0 0 1.06 1.06L41.53 7.03ZM0 7.25h41v-1.5H0v1.5Z" fill="#000"/></symbol><symbol viewBox="0 0 134 134" id="story--swiper-button-left" xmlns="http://www.w3.org/2000/svg"><path d="M0 67C0 29.997 29.997 0 67 0s67 29.997 67 67-29.997 67-67 67S0 104.003 0 67Z" fill="currentColor"/><path d="M31.94 65.94a1.5 1.5 0 0 0 0 2.12l9.545 9.547a1.5 1.5 0 1 0 2.122-2.122L35.12 67l8.486-8.485a1.5 1.5 0 1 0-2.122-2.122L31.94 65.94ZM100 65.5H33v3h67v-3Z" fill="var(--svg-swiperArrow)"/></symbol><symbol viewBox="0 0 134 134" id="story--swiper-button-right" xmlns="http://www.w3.org/2000/svg"><path d="M134 67c0 37.003-29.997 67-67 67S0 104.003 0 67 29.997 0 67 0s67 29.997 67 67Z" fill="currentColor"/><path d="M102.061 68.06a1.502 1.502 0 0 0 0-2.12l-9.546-9.547a1.5 1.5 0 1 0-2.122 2.122L98.88 67l-8.486 8.485a1.5 1.5 0 1 0 2.122 2.122l9.546-9.546ZM34 68.5h67v-3H34v3Z" fill="var(--svg-swiperArrow)"/></symbol><symbol viewBox="0 0 1200 120" preserveAspectRatio="none" id="swiper-edge" xmlns="http://www.w3.org/2000/svg"><path d="M0 0v7.23c0 58.29 268.63 105.54 600 105.54s600-47.25 600-105.54V0Z" class="bshape-fill"/></symbol><symbol fill="none" viewBox="0 0 25 24" id="top--arrow-up" xmlns="http://www.w3.org/2000/svg"><path d="m7.5 17 10-10M7.5 7h10v10"/></symbol></svg>